STARTFONT 2.1
FONT tvsys05b
SIZE 20 72 72
FONTBOUNDINGBOX 7 9 0 0
COMMENT "Generated by fontforge, http://fontforge.sourceforge.net"
STARTPROPERTIES 8
_XMBDFED_INFO "Edited with xmbdfed 4.4."
POINT_SIZE 200
WEIGHT 10
RESOLUTION 99
RESOLUTION_X 72
RESOLUTION_Y 72
X_HEIGHT 0
QUAD_WIDTH 6
ENDPROPERTIES
CHARS 256
STARTCHAR H00
ENCODING 0
SWIDTH 350 0
DWIDTH 7 0
BBX 0 0 0 0
BITMAP
ENDCHAR
STARTCHAR H01
ENCODING 1
SWIDTH 350 0
DWIDTH 7 0
BBX 6 5 0 3
BITMAP
5C
5C
5C
00
FC
ENDCHAR
STARTCHAR H02
ENCODING 2
SWIDTH 350 0
DWIDTH 7 0
BBX 6 1 0 3
BITMAP
FC
ENDCHAR
STARTCHAR H03
ENCODING 3
SWIDTH 350 0
DWIDTH 7 0
BBX 6 5 0 3
BITMAP
D8
FC
FC
F8
20
ENDCHAR
STARTCHAR H04
ENCODING 4
SWIDTH 350 0
DWIDTH 7 0
BBX 6 4 0 4
BITMAP
20
F8
FC
70
ENDCHAR
STARTCHAR H05
ENCODING 5
SWIDTH 350 0
DWIDTH 7 0
BBX 4 5 1 3
BITMAP
F0
00
00
60
F0
ENDCHAR
STARTCHAR H06
ENCODING 6
SWIDTH 350 0
DWIDTH 7 0
BBX 4 5 1 3
BITMAP
F0
00
00
60
F0
ENDCHAR
STARTCHAR H07
ENCODING 7
SWIDTH 350 0
DWIDTH 7 0
BBX 4 3 1 4
BITMAP
60
F0
60
ENDCHAR
STARTCHAR H08
ENCODING 8
SWIDTH 350 0
DWIDTH 7 0
BBX 6 5 0 3
BITMAP
84
8C
94
C4
84
ENDCHAR
STARTCHAR H09
ENCODING 9
SWIDTH 250 0
DWIDTH 5 0
BBX 4 4 1 3
BITMAP
60
90
90
60
ENDCHAR
STARTCHAR H0a
ENCODING 10
SWIDTH 350 0
DWIDTH 7 0
BBX 0 0 0 0
BITMAP
ENDCHAR
STARTCHAR H0b
ENCODING 11
SWIDTH 350 0
DWIDTH 7 0
BBX 6 5 0 3
BITMAP
1C
64
F0
98
F0
ENDCHAR
STARTCHAR H0c
ENCODING 12
SWIDTH 350 0
DWIDTH 7 0
BBX 6 5 0 3
BITMAP
CC
CC
78
FC
30
ENDCHAR
STARTCHAR H0d
ENCODING 13
SWIDTH 350 0
DWIDTH 7 0
BBX 7 5 0 3
BITMAP
FE
60
60
E0
C0
ENDCHAR
STARTCHAR H0e
ENCODING 14
SWIDTH 350 0
DWIDTH 7 0
BBX 7 2 0 3
BITMAP
02
CC
ENDCHAR
STARTCHAR H0f
ENCODING 15
SWIDTH 350 0
DWIDTH 7 0
BBX 4 5 1 3
BITMAP
60
F0
00
00
60
ENDCHAR
STARTCHAR H10
ENCODING 16
SWIDTH 350 0
DWIDTH 7 0
BBX 6 4 0 4
BITMAP
80
F0
FC
C0
ENDCHAR
STARTCHAR H11
ENCODING 17
SWIDTH 350 0
DWIDTH 7 0
BBX 6 5 0 3
BITMAP
0C
7C
FC
1C
04
ENDCHAR
STARTCHAR H12
ENCODING 18
SWIDTH 350 0
DWIDTH 7 0
BBX 6 5 0 3
BITMAP
78
30
30
FC
30
ENDCHAR
STARTCHAR H13
ENCODING 19
SWIDTH 350 0
DWIDTH 7 0
BBX 6 5 0 3
BITMAP
CC
CC
CC
00
CC
ENDCHAR
STARTCHAR H14
ENCODING 20
SWIDTH 350 0
DWIDTH 7 0
BBX 2 1 4 5
BITMAP
C0
ENDCHAR
STARTCHAR H15
ENCODING 21
SWIDTH 350 0
DWIDTH 7 0
BBX 6 9 0 0
BITMAP
F8
C0
D8
8C
D8
18
F8
F8
F8
ENDCHAR
STARTCHAR H16
ENCODING 22
SWIDTH 350 0
DWIDTH 7 0
BBX 6 2 0 3
BITMAP
FC
FC
ENDCHAR
STARTCHAR H17
ENCODING 23
SWIDTH 350 0
DWIDTH 7 0
BBX 6 5 0 3
BITMAP
78
30
30
FC
30
ENDCHAR
STARTCHAR H18
ENCODING 24
SWIDTH 350 0
DWIDTH 7 0
BBX 4 5 1 3
BITMAP
F0
60
60
60
60
ENDCHAR
STARTCHAR H19
ENCODING 25
SWIDTH 350 0
DWIDTH 7 0
BBX 6 5 0 3
BITMAP
30
30
30
FC
30
ENDCHAR
STARTCHAR H1a
ENCODING 26
SWIDTH 350 0
DWIDTH 7 0
BBX 6 3 0 4
BITMAP
18
FC
30
ENDCHAR
STARTCHAR H1b
ENCODING 27
SWIDTH 350 0
DWIDTH 7 0
BBX 6 3 0 4
BITMAP
C0
FC
60
ENDCHAR
STARTCHAR H1c
ENCODING 28
SWIDTH 350 0
DWIDTH 7 0
BBX 6 3 0 4
BITMAP
80
80
FC
ENDCHAR
STARTCHAR H1d
ENCODING 29
SWIDTH 350 0
DWIDTH 7 0
BBX 6 3 0 4
BITMAP
D8
FC
50
ENDCHAR
STARTCHAR H1e
ENCODING 30
SWIDTH 350 0
DWIDTH 7 0
BBX 6 4 0 4
BITMAP
20
70
F8
FC
ENDCHAR
STARTCHAR H1f
ENCODING 31
SWIDTH 350 0
DWIDTH 7 0
BBX 6 4 0 4
BITMAP
FC
F8
F8
70
ENDCHAR
STARTCHAR H20
ENCODING 32
SWIDTH 350 0
DWIDTH 7 0
BBX 0 0 0 0
BITMAP
ENDCHAR
STARTCHAR H21
ENCODING 33
SWIDTH 350 0
DWIDTH 7 0
BBX 1 7 3 1
BITMAP
80
80
80
80
80
00
80
ENDCHAR
STARTCHAR H22
ENCODING 34
SWIDTH 350 0
DWIDTH 7 0
BBX 3 2 2 6
BITMAP
A0
A0
ENDCHAR
STARTCHAR H23
ENCODING 35
SWIDTH 350 0
DWIDTH 7 0
BBX 5 5 1 2
BITMAP
50
F8
50
F8
50
ENDCHAR
STARTCHAR H24
ENCODING 36
SWIDTH 350 0
DWIDTH 7 0
BBX 5 7 1 1
BITMAP
20
78
A0
70
28
F0
20
ENDCHAR
STARTCHAR H25
ENCODING 37
SWIDTH 350 0
DWIDTH 7 0
BBX 5 7 1 1
BITMAP
C8
D0
10
20
40
58
98
ENDCHAR
STARTCHAR H26
ENCODING 38
SWIDTH 350 0
DWIDTH 7 0
BBX 5 7 1 1
BITMAP
60
90
A0
48
B0
90
68
ENDCHAR
STARTCHAR H27
ENCODING 39
SWIDTH 350 0
DWIDTH 7 0
BBX 2 3 3 5
BITMAP
40
40
80
ENDCHAR
STARTCHAR H28
ENCODING 40
SWIDTH 350 0
DWIDTH 7 0
BBX 2 7 1 1
BITMAP
40
80
80
80
80
80
40
ENDCHAR
STARTCHAR H29
ENCODING 41
SWIDTH 350 0
DWIDTH 7 0
BBX 2 7 3 1
BITMAP
80
40
40
40
40
40
80
ENDCHAR
STARTCHAR H2a
ENCODING 42
SWIDTH 350 0
DWIDTH 7 0
BBX 7 9 0 0
BITMAP
10
6C
AA
44
82
44
AA
6C
10
ENDCHAR
STARTCHAR H2b
ENCODING 43
SWIDTH 350 0
DWIDTH 7 0
BBX 7 7 0 1
BITMAP
38
28
EE
82
EE
28
38
ENDCHAR
STARTCHAR H2c
ENCODING 44
SWIDTH 350 0
DWIDTH 7 0
BBX 2 3 3 1
BITMAP
40
40
80
ENDCHAR
STARTCHAR H2d
ENCODING 45
SWIDTH 350 0
DWIDTH 7 0
BBX 5 1 1 4
BITMAP
F8
ENDCHAR
STARTCHAR H2e
ENCODING 46
SWIDTH 350 0
DWIDTH 7 0
BBX 1 1 3 1
BITMAP
80
ENDCHAR
STARTCHAR H2f
ENCODING 47
SWIDTH 350 0
DWIDTH 7 0
BBX 5 7 1 1
BITMAP
08
10
10
20
40
40
80
ENDCHAR
STARTCHAR H30
ENCODING 48
SWIDTH 350 0
DWIDTH 7 0
BBX 7 9 0 0
BITMAP
38
44
BA
B2
AA
9A
BA
44
38
ENDCHAR
STARTCHAR H31
ENCODING 49
SWIDTH 350 0
DWIDTH 7 0
BBX 7 9 0 0
BITMAP
78
48
68
28
28
28
EE
82
FE
ENDCHAR
STARTCHAR H32
ENCODING 50
SWIDTH 350 0
DWIDTH 7 0
BBX 7 9 0 0
BITMAP
FC
86
FA
7A
C6
BC
BE
82
FE
ENDCHAR
STARTCHAR H33
ENCODING 51
SWIDTH 350 0
DWIDTH 7 0
BBX 7 9 0 0
BITMAP
FC
86
FA
3A
24
3A
FA
86
FC
ENDCHAR
STARTCHAR H34
ENCODING 52
SWIDTH 350 0
DWIDTH 7 0
BBX 7 9 0 0
BITMAP
1C
24
54
B6
82
F6
14
14
1C
ENDCHAR
STARTCHAR H35
ENCODING 53
SWIDTH 350 0
DWIDTH 7 0
BBX 7 9 0 0
BITMAP
FE
82
BE
BC
86
FA
FA
86
FC
ENDCHAR
STARTCHAR H36
ENCODING 54
SWIDTH 350 0
DWIDTH 7 0
BBX 7 9 0 0
BITMAP
7C
C6
BA
BC
86
BA
BA
C6
7C
ENDCHAR
STARTCHAR H37
ENCODING 55
SWIDTH 350 0
DWIDTH 7 0
BBX 7 9 0 0
BITMAP
FE
82
FA
0A
14
28
50
A0
C0
ENDCHAR
STARTCHAR H38
ENCODING 56
SWIDTH 350 0
DWIDTH 7 0
BBX 7 9 0 0
BITMAP
38
44
BA
BA
44
BA
BA
44
38
ENDCHAR
STARTCHAR H39
ENCODING 57
SWIDTH 350 0
DWIDTH 7 0
BBX 7 9 0 0
BITMAP
7C
C6
BA
BA
C2
7A
3A
46
7C
ENDCHAR
STARTCHAR H3a
ENCODING 58
SWIDTH 350 0
DWIDTH 7 0
BBX 1 4 3 1
BITMAP
80
00
00
80
ENDCHAR
STARTCHAR H3b
ENCODING 59
SWIDTH 350 0
DWIDTH 7 0
BBX 2 5 2 0
BITMAP
40
00
40
40
80
ENDCHAR
STARTCHAR H3c
ENCODING 60
SWIDTH 350 0
DWIDTH 7 0
BBX 4 7 1 1
BITMAP
10
20
40
80
40
20
10
ENDCHAR
STARTCHAR H3d
ENCODING 61
SWIDTH 350 0
DWIDTH 7 0
BBX 5 3 1 3
BITMAP
F8
00
F8
ENDCHAR
STARTCHAR H3e
ENCODING 62
SWIDTH 350 0
DWIDTH 7 0
BBX 4 7 2 1
BITMAP
80
40
20
10
20
40
80
ENDCHAR
STARTCHAR H3f
ENCODING 63
SWIDTH 350 0
DWIDTH 7 0
BBX 5 7 1 1
BITMAP
70
88
08
10
20
00
20
ENDCHAR
STARTCHAR H40
ENCODING 64
SWIDTH 350 0
DWIDTH 7 0
BBX 0 0 0 0
BITMAP
ENDCHAR
STARTCHAR H41
ENCODING 65
SWIDTH 350 0
DWIDTH 7 0
BBX 7 9 0 0
BITMAP
38
44
BA
BA
82
BA
AA
AA
EE
ENDCHAR
STARTCHAR H42
ENCODING 66
SWIDTH 350 0
DWIDTH 7 0
BBX 7 9 0 0
BITMAP
FC
86
BA
BA
84
BA
BA
86
FC
ENDCHAR
STARTCHAR H43
ENCODING 67
SWIDTH 350 0
DWIDTH 7 0
BBX 7 9 0 0
BITMAP
38
44
BA
AE
A0
AE
BA
44
38
ENDCHAR
STARTCHAR H44
ENCODING 68
SWIDTH 350 0
DWIDTH 7 0
BBX 7 9 0 0
BITMAP
F8
84
BA
AA
AA
AA
BA
84
F8
ENDCHAR
STARTCHAR H45
ENCODING 69
SWIDTH 350 0
DWIDTH 7 0
BBX 7 9 0 0
BITMAP
FE
82
BE
B0
88
B0
BE
82
FE
ENDCHAR
STARTCHAR H46
ENCODING 70
SWIDTH 350 0
DWIDTH 7 0
BBX 7 9 0 0
BITMAP
FE
82
BE
B8
88
B8
A0
A0
E0
ENDCHAR
STARTCHAR H47
ENCODING 71
SWIDTH 350 0
DWIDTH 7 0
BBX 7 9 0 0
BITMAP
3C
42
BE
BC
B2
BA
BA
44
38
ENDCHAR
STARTCHAR H48
ENCODING 72
SWIDTH 350 0
DWIDTH 7 0
BBX 7 9 0 0
BITMAP
EE
AA
AA
BA
82
BA
AA
AA
EE
ENDCHAR
STARTCHAR H49
ENCODING 73
SWIDTH 300 0
DWIDTH 6 0
BBX 5 9 1 0
BITMAP
F8
88
50
50
50
50
50
88
F8
ENDCHAR
STARTCHAR H4a
ENCODING 74
SWIDTH 350 0
DWIDTH 7 0
BBX 7 9 0 0
BITMAP
0E
0A
0A
0A
EA
AA
BA
44
38
ENDCHAR
STARTCHAR H4b
ENCODING 75
SWIDTH 350 0
DWIDTH 7 0
BBX 7 9 0 0
BITMAP
E6
AA
B4
A8
88
A8
B4
AA
E6
ENDCHAR
STARTCHAR H4c
ENCODING 76
SWIDTH 300 0
DWIDTH 6 0
BBX 6 9 0 0
BITMAP
E0
A0
A0
A0
A0
A0
BC
84
FC
ENDCHAR
STARTCHAR H4d
ENCODING 77
SWIDTH 350 0
DWIDTH 7 0
BBX 7 9 0 0
BITMAP
C6
AA
92
AA
BA
AA
AA
AA
EE
ENDCHAR
STARTCHAR H4e
ENCODING 78
SWIDTH 350 0
DWIDTH 7 0
BBX 7 9 0 0
BITMAP
EE
AA
AA
9A
AA
B2
AA
AA
EE
ENDCHAR
STARTCHAR H4f
ENCODING 79
SWIDTH 350 0
DWIDTH 7 0
BBX 7 9 0 0
BITMAP
38
44
BA
AA
AA
AA
BA
44
38
ENDCHAR
STARTCHAR H50
ENCODING 80
SWIDTH 350 0
DWIDTH 7 0
BBX 7 9 0 0
BITMAP
F8
84
BA
BA
84
B8
A0
A0
E0
ENDCHAR
STARTCHAR H51
ENCODING 81
SWIDTH 350 0
DWIDTH 7 0
BBX 7 9 0 0
BITMAP
38
44
BA
AA
BA
AA
B2
42
3E
ENDCHAR
STARTCHAR H52
ENCODING 82
SWIDTH 350 0
DWIDTH 7 0
BBX 7 9 0 0
BITMAP
F8
84
BA
BA
84
A8
B4
AA
E6
ENDCHAR
STARTCHAR H53
ENCODING 83
SWIDTH 350 0
DWIDTH 7 0
BBX 7 9 0 0
BITMAP
3C
42
BE
B8
44
3A
FA
84
FC
ENDCHAR
STARTCHAR H54
ENCODING 84
SWIDTH 350 0
DWIDTH 7 0
BBX 7 9 0 0
BITMAP
FE
82
EE
28
28
28
28
28
38
ENDCHAR
STARTCHAR H55
ENCODING 85
SWIDTH 350 0
DWIDTH 7 0
BBX 7 9 0 0
BITMAP
EE
AA
AA
AA
AA
AA
BA
C6
7C
ENDCHAR
STARTCHAR H56
ENCODING 86
SWIDTH 350 0
DWIDTH 7 0
BBX 7 9 0 0
BITMAP
EE
AA
AA
AA
BA
54
54
28
10
ENDCHAR
STARTCHAR H57
ENCODING 87
SWIDTH 350 0
DWIDTH 7 0
BBX 7 9 0 0
BITMAP
EE
AA
AA
BA
AA
AA
92
AA
EE
ENDCHAR
STARTCHAR H58
ENCODING 88
SWIDTH 350 0
DWIDTH 7 0
BBX 7 9 0 0
BITMAP
C6
AA
AA
54
28
54
AA
AA
C6
ENDCHAR
STARTCHAR H59
ENCODING 89
SWIDTH 350 0
DWIDTH 7 0
BBX 7 9 0 0
BITMAP
EE
AA
AA
54
28
28
28
28
38
ENDCHAR
STARTCHAR H5a
ENCODING 90
SWIDTH 350 0
DWIDTH 7 0
BBX 7 9 0 0
BITMAP
FE
82
FA
14
28
50
BE
82
FE
ENDCHAR
STARTCHAR H5b
ENCODING 91
SWIDTH 350 0
DWIDTH 7 0
BBX 3 7 1 1
BITMAP
E0
80
80
80
80
80
E0
ENDCHAR
STARTCHAR H5c
ENCODING 92
SWIDTH 350 0
DWIDTH 7 0
BBX 5 7 1 1
BITMAP
80
40
40
20
10
10
08
ENDCHAR
STARTCHAR H5d
ENCODING 93
SWIDTH 350 0
DWIDTH 7 0
BBX 3 7 3 1
BITMAP
E0
20
20
20
20
20
E0
ENDCHAR
STARTCHAR H5e
ENCODING 94
SWIDTH 350 0
DWIDTH 7 0
BBX 3 2 2 6
BITMAP
40
A0
ENDCHAR
STARTCHAR H5f
ENCODING 95
SWIDTH 350 0
DWIDTH 7 0
BBX 7 1 0 1
BITMAP
FE
ENDCHAR
STARTCHAR H60
ENCODING 96
SWIDTH 350 0
DWIDTH 7 0
BBX 2 3 2 5
BITMAP
80
80
40
ENDCHAR
STARTCHAR H61
ENCODING 97
SWIDTH 350 0
DWIDTH 7 0
BBX 6 4 0 3
BITMAP
78
04
7C
84
ENDCHAR
STARTCHAR H62
ENCODING 98
SWIDTH 350 0
DWIDTH 7 0
BBX 6 5 0 3
BITMAP
80
B8
C4
84
C4
ENDCHAR
STARTCHAR H63
ENCODING 99
SWIDTH 350 0
DWIDTH 7 0
BBX 6 4 0 3
BITMAP
78
84
80
84
ENDCHAR
STARTCHAR H64
ENCODING 100
SWIDTH 350 0
DWIDTH 7 0
BBX 6 5 0 3
BITMAP
04
74
8C
84
8C
ENDCHAR
STARTCHAR H65
ENCODING 101
SWIDTH 350 0
DWIDTH 7 0
BBX 6 4 0 3
BITMAP
78
84
F8
80
ENDCHAR
STARTCHAR H66
ENCODING 102
SWIDTH 350 0
DWIDTH 7 0
BBX 6 5 0 3
BITMAP
24
20
F8
20
20
ENDCHAR
STARTCHAR H67
ENCODING 103
SWIDTH 350 0
DWIDTH 7 0
BBX 6 7 0 0
BITMAP
78
84
84
74
84
78
78
ENDCHAR
STARTCHAR H68
ENCODING 104
SWIDTH 350 0
DWIDTH 7 0
BBX 6 5 0 3
BITMAP
80
B8
C4
84
84
ENDCHAR
STARTCHAR H69
ENCODING 105
SWIDTH 350 0
DWIDTH 7 0
BBX 1 4 2 3
BITMAP
80
80
80
80
ENDCHAR
STARTCHAR H6a
ENCODING 106
SWIDTH 350 0
DWIDTH 7 0
BBX 5 4 0 3
BITMAP
18
08
08
88
ENDCHAR
STARTCHAR H6b
ENCODING 107
SWIDTH 350 0
DWIDTH 7 0
BBX 5 5 0 3
BITMAP
80
90
A0
A0
88
ENDCHAR
STARTCHAR H6c
ENCODING 108
SWIDTH 350 0
DWIDTH 7 0
BBX 1 5 2 3
BITMAP
80
80
80
80
80
ENDCHAR
STARTCHAR H6d
ENCODING 109
SWIDTH 350 0
DWIDTH 7 0
BBX 6 4 0 3
BITMAP
A8
D4
94
94
ENDCHAR
STARTCHAR H6e
ENCODING 110
SWIDTH 350 0
DWIDTH 7 0
BBX 6 4 0 3
BITMAP
B8
C4
84
84
ENDCHAR
STARTCHAR H6f
ENCODING 111
SWIDTH 350 0
DWIDTH 7 0
BBX 6 4 0 3
BITMAP
78
84
84
84
ENDCHAR
STARTCHAR H70
ENCODING 112
SWIDTH 350 0
DWIDTH 7 0
BBX 6 7 0 0
BITMAP
B8
C4
84
C4
80
80
80
ENDCHAR
STARTCHAR H71
ENCODING 113
SWIDTH 350 0
DWIDTH 7 0
BBX 6 7 0 0
BITMAP
74
8C
84
8C
04
04
04
ENDCHAR
STARTCHAR H72
ENCODING 114
SWIDTH 350 0
DWIDTH 7 0
BBX 6 4 0 3
BITMAP
B8
C4
80
80
ENDCHAR
STARTCHAR H73
ENCODING 115
SWIDTH 350 0
DWIDTH 7 0
BBX 6 4 0 3
BITMAP
78
84
78
84
ENDCHAR
STARTCHAR H74
ENCODING 116
SWIDTH 350 0
DWIDTH 7 0
BBX 6 5 0 3
BITMAP
20
F8
20
20
24
ENDCHAR
STARTCHAR H75
ENCODING 117
SWIDTH 350 0
DWIDTH 7 0
BBX 6 4 0 3
BITMAP
84
84
84
8C
ENDCHAR
STARTCHAR H76
ENCODING 118
SWIDTH 350 0
DWIDTH 7 0
BBX 6 4 0 3
BITMAP
84
84
48
30
ENDCHAR
STARTCHAR H77
ENCODING 119
SWIDTH 350 0
DWIDTH 7 0
BBX 6 4 0 3
BITMAP
84
84
84
CC
ENDCHAR
STARTCHAR H78
ENCODING 120
SWIDTH 350 0
DWIDTH 7 0
BBX 6 4 0 3
BITMAP
84
84
30
84
ENDCHAR
STARTCHAR H79
ENCODING 121
SWIDTH 350 0
DWIDTH 7 0
BBX 6 7 0 0
BITMAP
84
84
84
7C
84
78
78
ENDCHAR
STARTCHAR H7a
ENCODING 122
SWIDTH 350 0
DWIDTH 7 0
BBX 6 4 0 3
BITMAP
FC
04
30
80
ENDCHAR
STARTCHAR H7b
ENCODING 123
SWIDTH 350 0
DWIDTH 7 0
BBX 3 7 1 1
BITMAP
20
40
40
80
40
40
20
ENDCHAR
STARTCHAR H7c
ENCODING 124
SWIDTH 350 0
DWIDTH 7 0
BBX 1 9 3 0
BITMAP
80
80
80
80
80
80
80
80
80
ENDCHAR
STARTCHAR H7d
ENCODING 125
SWIDTH 350 0
DWIDTH 7 0
BBX 3 7 2 1
BITMAP
80
40
40
20
40
40
80
ENDCHAR
STARTCHAR H7e
ENCODING 126
SWIDTH 350 0
DWIDTH 7 0
BBX 5 3 1 5
BITMAP
40
A8
10
ENDCHAR
STARTCHAR H7f
ENCODING 127
SWIDTH 350 0
DWIDTH 7 0
BBX 6 3 0 4
BITMAP
70
D8
8C
ENDCHAR
STARTCHAR H80
ENCODING 128
SWIDTH 350 0
DWIDTH 7 0
BBX 7 7 0 1
BITMAP
10
28
44
54
BA
82
FE
ENDCHAR
STARTCHAR H81
ENCODING 129
SWIDTH 350 0
DWIDTH 7 0
BBX 7 7 0 2
BITMAP
FE
82
BA
AA
BA
82
FE
ENDCHAR
STARTCHAR H82
ENCODING 130
SWIDTH 350 0
DWIDTH 7 0
BBX 6 6 0 3
BITMAP
18
60
F8
8C
80
F8
ENDCHAR
STARTCHAR H83
ENCODING 131
SWIDTH 350 0
DWIDTH 7 0
BBX 6 6 0 3
BITMAP
20
D8
F0
18
98
EC
ENDCHAR
STARTCHAR H84
ENCODING 132
SWIDTH 300 0
DWIDTH 6 0
BBX 5 5 1 2
BITMAP
20
70
D8
70
20
ENDCHAR
STARTCHAR H85
ENCODING 133
SWIDTH 350 0
DWIDTH 7 0
BBX 6 6 0 3
BITMAP
C0
30
F0
18
98
EC
ENDCHAR
STARTCHAR H86
ENCODING 134
SWIDTH 350 0
DWIDTH 7 0
BBX 6 6 0 3
BITMAP
70
70
F0
18
98
EC
ENDCHAR
STARTCHAR H87
ENCODING 135
SWIDTH 350 0
DWIDTH 7 0
BBX 6 4 0 3
BITMAP
CC
C0
78
0C
ENDCHAR
STARTCHAR H88
ENCODING 136
SWIDTH 350 0
DWIDTH 7 0
BBX 6 6 0 3
BITMAP
20
D8
F8
8C
80
F8
ENDCHAR
STARTCHAR H89
ENCODING 137
SWIDTH 350 0
DWIDTH 7 0
BBX 6 5 0 3
BITMAP
98
F8
8C
80
F8
ENDCHAR
STARTCHAR H8a
ENCODING 138
SWIDTH 350 0
DWIDTH 7 0
BBX 6 4 1 2
BITMAP
CC
78
78
CC
ENDCHAR
STARTCHAR H8b
ENCODING 139
SWIDTH 350 0
DWIDTH 7 0
BBX 7 7 0 1
BITMAP
38
44
82
82
82
44
38
ENDCHAR
STARTCHAR H8c
ENCODING 140
SWIDTH 350 0
DWIDTH 7 0
BBX 7 7 0 1
BITMAP
10
28
44
82
44
28
10
ENDCHAR
STARTCHAR H8d
ENCODING 141
SWIDTH 300 0
DWIDTH 6 0
BBX 5 5 1 2
BITMAP
F8
F8
F8
F8
F8
ENDCHAR
STARTCHAR H8e
ENCODING 142
SWIDTH 350 0
DWIDTH 7 0
BBX 6 6 0 3
BITMAP
8C
20
D8
8C
FC
8C
ENDCHAR
STARTCHAR H8f
ENCODING 143
SWIDTH 350 0
DWIDTH 7 0
BBX 6 6 0 3
BITMAP
D8
00
D8
8C
FC
8C
ENDCHAR
STARTCHAR H90
ENCODING 144
SWIDTH 350 0
DWIDTH 7 0
BBX 6 6 0 3
BITMAP
60
00
CC
C0
C0
FC
ENDCHAR
STARTCHAR H91
ENCODING 145
SWIDTH 350 0
DWIDTH 7 0
BBX 6 4 0 3
BITMAP
EC
6C
B0
DC
ENDCHAR
STARTCHAR H92
ENCODING 146
SWIDTH 350 0
DWIDTH 7 0
BBX 6 5 0 3
BITMAP
D8
98
FC
98
9C
ENDCHAR
STARTCHAR H93
ENCODING 147
SWIDTH 350 0
DWIDTH 7 0
BBX 6 6 0 3
BITMAP
20
D8
F8
8C
8C
F8
ENDCHAR
STARTCHAR H94
ENCODING 148
SWIDTH 350 0
DWIDTH 7 0
BBX 6 5 0 3
BITMAP
8C
F8
8C
8C
F8
ENDCHAR
STARTCHAR H95
ENCODING 149
SWIDTH 350 0
DWIDTH 7 0
BBX 6 6 0 3
BITMAP
C0
30
F8
8C
8C
F8
ENDCHAR
STARTCHAR H96
ENCODING 150
SWIDTH 350 0
DWIDTH 7 0
BBX 6 6 0 3
BITMAP
60
98
98
98
98
EC
ENDCHAR
STARTCHAR H97
ENCODING 151
SWIDTH 350 0
DWIDTH 7 0
BBX 6 6 0 3
BITMAP
C0
30
98
98
98
EC
ENDCHAR
STARTCHAR H98
ENCODING 152
SWIDTH 350 0
DWIDTH 7 0
BBX 6 8 0 0
BITMAP
8C
8C
8C
8C
0C
F0
F0
F0
ENDCHAR
STARTCHAR H99
ENCODING 153
SWIDTH 350 0
DWIDTH 7 0
BBX 6 6 0 3
BITMAP
8C
70
8C
8C
8C
70
ENDCHAR
STARTCHAR H9a
ENCODING 154
SWIDTH 350 0
DWIDTH 7 0
BBX 6 6 0 3
BITMAP
8C
00
8C
8C
8C
F8
ENDCHAR
STARTCHAR H9b
ENCODING 155
SWIDTH 350 0
DWIDTH 7 0
BBX 5 6 0 3
BITMAP
30
78
C0
C0
78
30
ENDCHAR
STARTCHAR H9c
ENCODING 156
SWIDTH 350 0
DWIDTH 7 0
BBX 5 6 0 3
BITMAP
70
C8
E0
C0
C0
F8
ENDCHAR
STARTCHAR H9d
ENCODING 157
SWIDTH 350 0
DWIDTH 7 0
BBX 6 5 0 3
BITMAP
CC
30
FC
FC
30
ENDCHAR
STARTCHAR H9e
ENCODING 158
SWIDTH 350 0
DWIDTH 7 0
BBX 6 6 0 3
BITMAP
F0
98
88
98
98
8C
ENDCHAR
STARTCHAR H9f
ENCODING 159
SWIDTH 350 0
DWIDTH 7 0
BBX 6 9 0 0
BITMAP
1C
30
30
FC
30
30
E0
E0
E0
ENDCHAR
STARTCHAR Ha0
ENCODING 160
SWIDTH 350 0
DWIDTH 7 0
BBX 6 6 0 3
BITMAP
30
C0
F0
18
98
EC
ENDCHAR
STARTCHAR Ha1
ENCODING 161
SWIDTH 350 0
DWIDTH 7 0
BBX 4 6 1 3
BITMAP
30
C0
E0
60
60
F0
ENDCHAR
STARTCHAR Ha2
ENCODING 162
SWIDTH 350 0
DWIDTH 7 0
BBX 6 6 0 3
BITMAP
30
C0
F8
8C
8C
F8
ENDCHAR
STARTCHAR Ha3
ENCODING 163
SWIDTH 350 0
DWIDTH 7 0
BBX 6 6 0 3
BITMAP
30
C0
98
98
98
EC
ENDCHAR
STARTCHAR Ha4
ENCODING 164
SWIDTH 350 0
DWIDTH 7 0
BBX 6 5 0 3
BITMAP
B8
B8
CC
CC
CC
ENDCHAR
STARTCHAR Ha5
ENCODING 165
SWIDTH 350 0
DWIDTH 7 0
BBX 6 6 0 3
BITMAP
B8
8C
EC
FC
9C
8C
ENDCHAR
STARTCHAR Ha6
ENCODING 166
SWIDTH 350 0
DWIDTH 7 0
BBX 6 4 0 5
BITMAP
78
D8
00
FC
ENDCHAR
STARTCHAR Ha7
ENCODING 167
SWIDTH 350 0
DWIDTH 7 0
BBX 5 4 0 5
BITMAP
70
D8
00
F8
ENDCHAR
STARTCHAR Ha8
ENCODING 168
SWIDTH 350 0
DWIDTH 7 0
BBX 6 5 0 3
BITMAP
60
60
60
8C
F8
ENDCHAR
STARTCHAR Ha9
ENCODING 169
SWIDTH 350 0
DWIDTH 7 0
BBX 6 2 0 4
BITMAP
FC
80
ENDCHAR
STARTCHAR Haa
ENCODING 170
SWIDTH 350 0
DWIDTH 7 0
BBX 6 2 0 4
BITMAP
FC
0C
ENDCHAR
STARTCHAR Hab
ENCODING 171
SWIDTH 350 0
DWIDTH 7 0
BBX 6 9 0 0
BITMAP
80
8C
B0
60
B8
18
7C
7C
7C
ENDCHAR
STARTCHAR Hac
ENCODING 172
SWIDTH 350 0
DWIDTH 7 0
BBX 6 9 0 0
BITMAP
80
8C
B0
60
9C
7C
0C
0C
0C
ENDCHAR
STARTCHAR Had
ENCODING 173
SWIDTH 350 0
DWIDTH 7 0
BBX 4 5 1 3
BITMAP
60
60
60
F0
60
ENDCHAR
STARTCHAR Hae
ENCODING 174
SWIDTH 350 0
DWIDTH 7 0
BBX 6 3 0 4
BITMAP
D8
B0
6C
ENDCHAR
STARTCHAR Haf
ENCODING 175
SWIDTH 350 0
DWIDTH 7 0
BBX 6 3 0 4
BITMAP
D8
6C
B0
ENDCHAR
STARTCHAR Hb0
ENCODING 176
SWIDTH 350 0
DWIDTH 7 0
BBX 7 5 0 3
BITMAP
7C
C6
C6
C6
7C
ENDCHAR
STARTCHAR Hb1
ENCODING 177
SWIDTH 350 0
DWIDTH 7 0
BBX 3 5 1 3
BITMAP
E0
60
60
60
60
ENDCHAR
STARTCHAR Hb2
ENCODING 178
SWIDTH 350 0
DWIDTH 7 0
BBX 7 5 0 3
BITMAP
86
06
1C
60
80
ENDCHAR
STARTCHAR Hb3
ENCODING 179
SWIDTH 350 0
DWIDTH 7 0
BBX 7 5 0 3
BITMAP
06
18
3C
06
C6
ENDCHAR
STARTCHAR Hb4
ENCODING 180
SWIDTH 350 0
DWIDTH 7 0
BBX 6 5 0 3
BITMAP
1C
6C
CC
0C
0C
ENDCHAR
STARTCHAR Hb5
ENCODING 181
SWIDTH 350 0
DWIDTH 7 0
BBX 7 5 0 3
BITMAP
C0
FC
C6
06
C6
ENDCHAR
STARTCHAR Hb6
ENCODING 182
SWIDTH 350 0
DWIDTH 7 0
BBX 7 5 0 3
BITMAP
30
C0
FC
C6
C6
ENDCHAR
STARTCHAR Hb7
ENCODING 183
SWIDTH 350 0
DWIDTH 7 0
BBX 7 5 0 3
BITMAP
06
0C
18
60
C0
ENDCHAR
STARTCHAR Hb8
ENCODING 184
SWIDTH 350 0
DWIDTH 7 0
BBX 7 5 0 3
BITMAP
C6
6C
38
C6
C6
ENDCHAR
STARTCHAR Hb9
ENCODING 185
SWIDTH 350 0
DWIDTH 7 0
BBX 7 5 0 3
BITMAP
C6
C6
CE
06
18
ENDCHAR
STARTCHAR Hba
ENCODING 186
SWIDTH 350 0
DWIDTH 7 0
BBX 5 9 1 0
BITMAP
D8
D8
D8
D8
D8
D8
D8
D8
D8
ENDCHAR
STARTCHAR Hbb
ENCODING 187
SWIDTH 350 0
DWIDTH 7 0
BBX 6 7 0 0
BITMAP
FC
0C
6C
6C
6C
6C
6C
ENDCHAR
STARTCHAR Hbc
ENCODING 188
SWIDTH 350 0
DWIDTH 7 0
BBX 6 4 0 5
BITMAP
6C
6C
EC
0C
ENDCHAR
STARTCHAR Hbd
ENCODING 189
SWIDTH 350 0
DWIDTH 7 0
BBX 5 4 1 5
BITMAP
D8
D8
D8
D8
ENDCHAR
STARTCHAR Hbe
ENCODING 190
SWIDTH 350 0
DWIDTH 7 0
BBX 4 4 0 5
BITMAP
30
30
F0
30
ENDCHAR
STARTCHAR Hbf
ENCODING 191
SWIDTH 350 0
DWIDTH 7 0
BBX 2 5 2 0
BITMAP
C0
C0
C0
C0
C0
ENDCHAR
STARTCHAR Hc0
ENCODING 192
SWIDTH 350 0
DWIDTH 7 0
BBX 2 4 2 5
BITMAP
C0
C0
C0
C0
ENDCHAR
STARTCHAR Hc1
ENCODING 193
SWIDTH 350 0
DWIDTH 7 0
BBX 7 5 0 3
BITMAP
6C
C6
C6
C6
C6
ENDCHAR
STARTCHAR Hc2
ENCODING 194
SWIDTH 350 0
DWIDTH 7 0
BBX 7 5 0 3
BITMAP
C6
C6
FC
C6
C6
ENDCHAR
STARTCHAR Hc3
ENCODING 195
SWIDTH 350 0
DWIDTH 7 0
BBX 7 5 0 3
BITMAP
C6
C0
C0
C0
C6
ENDCHAR
STARTCHAR Hc4
ENCODING 196
SWIDTH 350 0
DWIDTH 7 0
BBX 6 5 1 3
BITMAP
CC
CC
CC
CC
CC
ENDCHAR
STARTCHAR Hc5
ENCODING 197
SWIDTH 350 0
DWIDTH 7 0
BBX 5 5 0 3
BITMAP
C0
C0
F8
C0
C0
ENDCHAR
STARTCHAR Hc6
ENCODING 198
SWIDTH 350 0
DWIDTH 7 0
BBX 5 5 0 3
BITMAP
C0
C0
F8
C0
C0
ENDCHAR
STARTCHAR Hc7
ENCODING 199
SWIDTH 350 0
DWIDTH 7 0
BBX 6 5 0 3
BITMAP
CC
C0
C0
CC
CC
ENDCHAR
STARTCHAR Hc8
ENCODING 200
SWIDTH 350 0
DWIDTH 7 0
BBX 7 5 0 3
BITMAP
C6
C6
FE
C6
C6
ENDCHAR
STARTCHAR Hc9
ENCODING 201
SWIDTH 350 0
DWIDTH 7 0
BBX 2 5 2 3
BITMAP
C0
C0
C0
C0
C0
ENDCHAR
STARTCHAR Hca
ENCODING 202
SWIDTH 350 0
DWIDTH 7 0
BBX 7 5 0 3
BITMAP
06
06
06
06
C6
ENDCHAR
STARTCHAR Hcb
ENCODING 203
SWIDTH 350 0
DWIDTH 7 0
BBX 6 5 0 3
BITMAP
CC
F0
E0
F0
CC
ENDCHAR
STARTCHAR Hcc
ENCODING 204
SWIDTH 350 0
DWIDTH 7 0
BBX 2 5 0 3
BITMAP
C0
C0
C0
C0
C0
ENDCHAR
STARTCHAR Hcd
ENCODING 205
SWIDTH 350 0
DWIDTH 7 0
BBX 7 5 0 3
BITMAP
EE
FE
C6
C6
C6
ENDCHAR
STARTCHAR Hce
ENCODING 206
SWIDTH 350 0
DWIDTH 7 0
BBX 7 5 0 3
BITMAP
C6
F6
F6
DE
C6
ENDCHAR
STARTCHAR Hcf
ENCODING 207
SWIDTH 350 0
DWIDTH 7 0
BBX 7 5 0 3
BITMAP
6C
C6
C6
C6
6C
ENDCHAR
STARTCHAR Hd0
ENCODING 208
SWIDTH 350 0
DWIDTH 7 0
BBX 7 5 0 3
BITMAP
C6
C6
C6
C0
C0
ENDCHAR
STARTCHAR Hd1
ENCODING 209
SWIDTH 350 0
DWIDTH 7 0
BBX 7 5 0 3
BITMAP
C6
C6
C6
F6
CC
ENDCHAR
STARTCHAR Hd2
ENCODING 210
SWIDTH 350 0
DWIDTH 7 0
BBX 7 5 0 3
BITMAP
C6
C6
C6
F0
CC
ENDCHAR
STARTCHAR Hd3
ENCODING 211
SWIDTH 350 0
DWIDTH 7 0
BBX 7 5 0 3
BITMAP
C6
C0
7C
06
C6
ENDCHAR
STARTCHAR Hd4
ENCODING 212
SWIDTH 350 0
DWIDTH 7 0
BBX 2 5 2 3
BITMAP
C0
C0
C0
C0
C0
ENDCHAR
STARTCHAR Hd5
ENCODING 213
SWIDTH 350 0
DWIDTH 7 0
BBX 7 5 0 3
BITMAP
C6
C6
C6
C6
C6
ENDCHAR
STARTCHAR Hd6
ENCODING 214
SWIDTH 350 0
DWIDTH 7 0
BBX 7 5 0 3
BITMAP
C6
C6
C6
6C
38
ENDCHAR
STARTCHAR Hd7
ENCODING 215
SWIDTH 350 0
DWIDTH 7 0
BBX 7 5 0 3
BITMAP
C6
C6
C6
C6
EE
ENDCHAR
STARTCHAR Hd8
ENCODING 216
SWIDTH 350 0
DWIDTH 7 0
BBX 7 5 0 3
BITMAP
C6
6C
38
6C
C6
ENDCHAR
STARTCHAR Hd9
ENCODING 217
SWIDTH 350 0
DWIDTH 7 0
BBX 6 5 0 3
BITMAP
CC
CC
78
30
30
ENDCHAR
STARTCHAR Hda
ENCODING 218
SWIDTH 350 0
DWIDTH 7 0
BBX 7 5 0 3
BITMAP
06
0C
18
60
C0
ENDCHAR
STARTCHAR Hdb
ENCODING 219
SWIDTH 350 0
DWIDTH 7 0
BBX 6 5 0 3
BITMAP
84
BC
A4
80
80
ENDCHAR
STARTCHAR Hdc
ENCODING 220
SWIDTH 350 0
DWIDTH 7 0
BBX 0 0 0 0
BITMAP
ENDCHAR
STARTCHAR Hdd
ENCODING 221
SWIDTH 350 0
DWIDTH 7 0
BBX 3 9 0 0
BITMAP
E0
E0
E0
E0
E0
E0
E0
E0
E0
ENDCHAR
STARTCHAR Hde
ENCODING 222
SWIDTH 350 0
DWIDTH 7 0
BBX 1 9 2 0
BITMAP
80
80
80
80
80
80
80
80
80
ENDCHAR
STARTCHAR Hdf
ENCODING 223
SWIDTH 350 0
DWIDTH 7 0
BBX 0 0 0 0
BITMAP
ENDCHAR
STARTCHAR He0
ENCODING 224
SWIDTH 350 0
DWIDTH 7 0
BBX 6 4 0 3
BITMAP
EC
B8
B0
EC
ENDCHAR
STARTCHAR He1
ENCODING 225
SWIDTH 350 0
DWIDTH 7 0
BBX 6 7 0 0
BITMAP
8C
F8
8C
80
80
80
80
ENDCHAR
STARTCHAR He2
ENCODING 226
SWIDTH 350 0
DWIDTH 7 0
BBX 6 5 0 3
BITMAP
8C
80
80
80
80
ENDCHAR
STARTCHAR He3
ENCODING 227
SWIDTH 350 0
DWIDTH 7 0
BBX 5 4 0 3
BITMAP
D8
D8
D8
D8
ENDCHAR
STARTCHAR He4
ENCODING 228
SWIDTH 350 0
DWIDTH 7 0
BBX 6 5 0 3
BITMAP
8C
60
30
C0
FC
ENDCHAR
STARTCHAR He5
ENCODING 229
SWIDTH 350 0
DWIDTH 7 0
BBX 6 4 0 3
BITMAP
FC
B0
B0
E0
ENDCHAR
STARTCHAR He6
ENCODING 230
SWIDTH 350 0
DWIDTH 7 0
BBX 6 4 0 3
BITMAP
CC
CC
F8
C0
ENDCHAR
STARTCHAR He7
ENCODING 231
SWIDTH 350 0
DWIDTH 7 0
BBX 5 4 0 3
BITMAP
B8
30
30
30
ENDCHAR
STARTCHAR He8
ENCODING 232
SWIDTH 350 0
DWIDTH 7 0
BBX 6 5 0 3
BITMAP
30
CC
CC
78
FC
ENDCHAR
STARTCHAR He9
ENCODING 233
SWIDTH 350 0
DWIDTH 7 0
BBX 6 5 0 3
BITMAP
D8
8C
FC
8C
70
ENDCHAR
STARTCHAR Hea
ENCODING 234
SWIDTH 350 0
DWIDTH 7 0
BBX 6 5 0 3
BITMAP
D8
8C
8C
D8
DC
ENDCHAR
STARTCHAR Heb
ENCODING 235
SWIDTH 350 0
DWIDTH 7 0
BBX 6 5 0 3
BITMAP
60
18
7C
CC
78
ENDCHAR
STARTCHAR Hec
ENCODING 236
SWIDTH 350 0
DWIDTH 7 0
BBX 6 3 0 4
BITMAP
FC
00
FC
ENDCHAR
STARTCHAR Hed
ENCODING 237
SWIDTH 350 0
DWIDTH 7 0
BBX 7 7 0 1
BITMAP
38
54
82
C6
82
54
38
ENDCHAR
STARTCHAR Hee
ENCODING 238
SWIDTH 350 0
DWIDTH 7 0
BBX 7 7 0 1
BITMAP
28
28
EE
00
EE
28
28
ENDCHAR
STARTCHAR Hef
ENCODING 239
SWIDTH 350 0
DWIDTH 7 0
BBX 7 7 0 1
BITMAP
10
10
10
FE
10
10
10
ENDCHAR
STARTCHAR Hf0
ENCODING 240
SWIDTH 350 0
DWIDTH 7 0
BBX 6 3 0 5
BITMAP
FC
00
FC
ENDCHAR
STARTCHAR Hf1
ENCODING 241
SWIDTH 350 0
DWIDTH 7 0
BBX 6 3 0 5
BITMAP
30
FC
30
ENDCHAR
STARTCHAR Hf2
ENCODING 242
SWIDTH 350 0
DWIDTH 7 0
BBX 6 5 0 3
BITMAP
30
0C
18
60
FC
ENDCHAR
STARTCHAR Hf3
ENCODING 243
SWIDTH 350 0
DWIDTH 7 0
BBX 6 5 0 3
BITMAP
30
C0
60
18
FC
ENDCHAR
STARTCHAR Hf4
ENCODING 244
SWIDTH 350 0
DWIDTH 7 0
BBX 2 7 2 0
BITMAP
C0
C0
C0
C0
C0
C0
C0
ENDCHAR
STARTCHAR Hf5
ENCODING 245
SWIDTH 350 0
DWIDTH 7 0
BBX 4 6 0 3
BITMAP
30
30
30
30
B0
E0
ENDCHAR
STARTCHAR Hf6
ENCODING 246
SWIDTH 350 0
DWIDTH 7 0
BBX 6 4 0 4
BITMAP
30
00
FC
30
ENDCHAR
STARTCHAR Hf7
ENCODING 247
SWIDTH 350 0
DWIDTH 7 0
BBX 5 3 0 4
BITMAP
B8
00
B8
ENDCHAR
STARTCHAR Hf8
ENCODING 248
SWIDTH 350 0
DWIDTH 7 0
BBX 5 2 0 7
BITMAP
70
D8
ENDCHAR
STARTCHAR Hf9
ENCODING 249
SWIDTH 350 0
DWIDTH 7 0
BBX 2 1 2 5
BITMAP
C0
ENDCHAR
STARTCHAR Hfa
ENCODING 250
SWIDTH 350 0
DWIDTH 7 0
BBX 0 0 0 0
BITMAP
ENDCHAR
STARTCHAR Hfb
ENCODING 251
SWIDTH 350 0
DWIDTH 7 0
BBX 7 7 0 1
BITMAP
82
44
28
10
28
44
82
ENDCHAR
STARTCHAR Hfc
ENCODING 252
SWIDTH 350 0
DWIDTH 7 0
BBX 5 4 0 5
BITMAP
B0
D8
D8
D8
ENDCHAR
STARTCHAR Hfd
ENCODING 253
SWIDTH 350 0
DWIDTH 7 0
BBX 4 4 0 5
BITMAP
E0
60
90
F0
ENDCHAR
STARTCHAR Hfe
ENCODING 254
SWIDTH 250 0
DWIDTH 5 0
BBX 4 4 1 3
BITMAP
F0
90
90
F0
ENDCHAR
STARTCHAR Hff
ENCODING 255
SWIDTH 350 0
DWIDTH 7 0
BBX 0 0 0 0
BITMAP
ENDCHAR
ENDFONT
